<svg data-v-0dd9719b="" version="1.0" xmlns="http://www.w3.org/2000/svg" xmlns:xlink="http://www.w3.org/1999/xlink" width="100%" height="100%" viewBox="0 0 340.000000 250.000000" preserveAspectRatio="xMidYMid meet" color-interpolation-filters="sRGB" style="margin: auto;"> <rect data-v-0dd9719b="" x="0" y="0" width="100%" height="100%" fill="#fff" fill-opacity="1" class="background"></rect> <rect data-v-0dd9719b="" x="0" y="0" width="100%" height="100%" fill="url(#watermark)" fill-opacity="1" class="watermarklayer"></rect> <g data-v-0dd9719b="" fill="#333" class="icon-text-wrapper icon-svg-group iconsvg" transform="translate(48.540000915527344,92.12940979003906)"><g class="iconsvg-imagesvg" transform="translate(0,0)"><g><rect fill="#333" fill-opacity="0" stroke-width="2" x="0" y="0" width="60" height="65.74117698620532" class="image-rect"></rect> <svg x="0" y="0" width="60" height="65.74117698620532" filtersec="colorsb3144536544" class="image-svg-svg primary" style="overflow: visible;"><svg xmlns="http://www.w3.org/2000/svg" viewBox="0.0018437110120430589 0 91.22099304199219 99.94999694824219"><path d="M71.1 48.23c0-1.43 0-2.84-.1-4.23 0-1.09-.13-2.16-.22-3.23-.18-2.27-.41-4.49-.75-6.64-.17-1.11-.38-2.19-.6-3.27a72.55 72.55 0 0 0-2.27-8.67c-.25-.75-.51-1.48-.78-2.2-.59-1.56-1.22-3-1.9-4.44-.35-.71-.69-1.42-1.06-2.1C58.85 5.1 52.61 0 45.61 0c-11 0-20.2 12.65-23.81 30.86 1.78-1.36 3.62-2.69 5.58-4C31 13.64 37.91 4.48 45.61 4.48c4.84 0 9.35 3.63 12.94 9.6.4.65.77 1.34 1.14 2a47 47 0 0 1 2 4.27c.28.69.53 1.41.78 2.13.5 1.4 1 2.85 1.39 4.36q.43 1.61.81 3.27c.46 2.06.85 4.2 1.15 6.41.15 1 .29 2.06.39 3.13a84.71 84.71 0 0 1 .43 8.53 77.59 77.59 0 0 1-4.17 25.7c-.25.72-.51 1.44-.78 2.13-.62 1.53-1.29 2.94-2 4.29-.36.69-.73 1.36-1.11 2-2.44 4.05-5.3 7-8.39 8.49a5.68 5.68 0 0 0-4.57-2.41 5.79 5.79 0 0 0 0 11.57 5.71 5.71 0 0 0 5.57-4.69C55.9 93.38 60.1 89.07 63.41 83c.37-.67.72-1.38 1.06-2.09q1-2.11 1.91-4.45c.27-.72.53-1.45.78-2.2a83.14 83.14 0 0 0 3.94-26.03z" fill="#1d3bd4"></path><path d="M36.26 74.69C23 78.14 11.58 76.77 7.72 70.1c-2.42-4.19-1.52-9.91 1.85-16 .37-.66.78-1.33 1.21-2a46.78 46.78 0 0 1 2.7-3.86c.46-.58 1-1.17 1.46-1.75 1-1.13 2-2.26 3.08-3.38.78-.78 1.59-1.56 2.43-2.33 1.55-1.43 3.2-2.84 5-4.21.83-.64 1.65-1.28 2.52-1.9C30.19 33 32.59 31.48 35.1 30a77.72 77.72 0 0 1 24.34-9.24 43 43 0 0 0-2-4.24 82.63 82.63 0 0 0-24.52 9.6c-1.24.72-2.43 1.46-3.61 2.21-.92.59-1.81 1.19-2.69 1.8-1.87 1.29-3.68 2.61-5.37 4-.88.71-1.71 1.43-2.53 2.15a71.93 71.93 0 0 0-6.38 6.31c-.53.59-1 1.18-1.52 1.77Q9.2 46.3 7.88 48.23c-.44.65-.88 1.31-1.28 2-5 8.13-6.25 16.09-2.75 22.15 3.37 5.84 10.48 8.73 19.51 8.73a60.61 60.61 0 0 0 19.11-3.53c-2.06-.9-4.13-1.84-6.21-2.89zM6.6 46.26c.91-1.3 1.89-2.6 3-3.9-2.26-4.1-3.38-8-3.15-11.43a5.76 5.76 0 0 0 2.23-10.71 5.87 5.87 0 0 0-2.89-.77 5.81 5.81 0 0 0-5 2.89 5.72 5.72 0 0 0-.59 4.39 5.64 5.64 0 0 0 1.86 2.78C1.37 34.57 3 40.36 6.6 46.26zM72.56 36.28c.29 2.23.52 4.49.65 6.82 9.64 9.8 14.14 20.34 10.3 27-2.42 4.19-7.83 6.28-14.8 6.41q-.87 2.35-1.88 4.51h1c9 0 16.14-2.89 19.51-8.73 5.56-9.51-.82-23.77-14.78-36.01z" fill="#1d3bd4"></path><path d="M45.61 71.56c-1-.4-1.93-.79-2.91-1.23a86.795 86.795 0 0 1-7.6-3.9A77.78 77.78 0 0 1 14.93 50a44 44 0 0 0-2.64 3.9 82.87 82.87 0 0 0 20.58 16.4c1.24.72 2.48 1.38 3.72 2 1 .51 1.94 1 2.9 1.43q3.09 1.47 6.12 2.66c1.06.4 2.1.77 3.15 1.13a71.29 71.29 0 0 0 8.64 2.38 42.75 42.75 0 0 0 2-4.23c-1.46-.27-2.95-.59-4.47-1-1.07-.28-2.15-.6-3.24-.93-1.97-.61-4.02-1.34-6.08-2.18zM90.45 22.34a5.81 5.81 0 0 0-5-2.89 5.63 5.63 0 0 0-1.9.37c-4-3.09-9.84-4.56-16.71-4.4.68 1.45 1.31 3 1.89 4.53 4.71.09 8.68 1.09 11.52 3a5.72 5.72 0 0 0 .2 5.17 5.81 5.81 0 0 0 5 2.89 5.79 5.79 0 0 0 5-8.68z" fill="#1d3bd4"></path><circle cx="45.61" cy="48.81" r="11.16" fill="#f39a2c"></circle></svg></svg> <!----></g></g> <g transform="translate(67,4.454341888427734)"><g data-gra="path-name" fill-rule="" class="tp-name iconsvg-namesvg" transform="translate(0,0)"><g transform="scale(1)"><g><path d="M21.84-2.46L21.84-2.46Q18.06 1.01 9.18 3.38L9.18 3.38Q6.15 4.13 4.88 2.59L4.88 2.59Q4.35 1.85 4.68 1.16 5.01 0.48 6.09-0.15 7.16-0.79 8.28-1.21 9.4-1.63 10.46-1.85L10.46-1.85Q13.4-2.77 15.36-3.82 17.31-4.88 18.13-5.98 18.94-7.08 19.2-7.89 19.47-8.7 19.47-9.71L19.47-9.71 19.47-9.84Q19.47-12.61 22.28-12.61L22.28-12.61Q25-12.61 25-9.84L25-9.84 25-9.54Q25-5.36 21.84-2.46ZM10.85-18.33L10.85-18.33 34.32-18.33Q35.64-18.33 36.45-17.51 37.27-16.7 37.27-15.38L37.27-15.38 37.27-7.6Q37.27-4.79 34.41-4.79 31.55-4.79 31.55-7.6L31.55-7.6 31.55-14.11 14.46-14.11Q13.36-14.11 13.36-13.01L13.36-13.01 13.36-7.16Q13.36-4.44 10.68-4.44L10.68-4.44Q7.91-4.44 7.91-7.16L7.91-7.16 7.91-15.38Q7.91-16.7 8.72-17.51 9.54-18.33 10.85-18.33ZM37.4 3.16L37.4 3.16Q32.17 0.7 26.37-1.32L26.37-1.32Q23.91-2.07 25.36-4.35L25.36-4.35Q26.32-5.89 27.99-5.49L27.99-5.49Q34.8-3.47 39.9-1.23L39.9-1.23Q41.04-0.7 41.15 0.07 41.26 0.83 40.56 1.98L40.56 1.98Q39.9 3.12 39.22 3.41 38.54 3.69 37.4 3.16ZM19.95-29.71L19.95-32.08 13.84-32.08Q12.79-32.08 12.79-31.03L12.79-31.03 12.79-30.72Q12.79-29.71 13.8-29.71L13.8-29.71 19.95-29.71ZM25.36-32.08L25.36-29.71 30.85-29.71Q31.95-29.71 31.95-30.76L31.95-30.76 31.95-31.07Q31.95-32.08 30.89-32.08L30.89-32.08 25.36-32.08ZM40.56-20L40.56-20 4.66-20Q2.5-20 2.5-22.19L2.5-22.19Q2.5-24.35 4.66-24.35L4.66-24.35 19.95-24.35 19.95-26.24 10.72-26.24Q9.4-26.24 8.59-27.05 7.78-27.86 7.78-29.18L7.78-29.18 7.78-32.56Q7.78-33.88 8.59-34.69 9.4-35.51 10.72-35.51L10.72-35.51 19.95-35.51 19.95-35.6Q19.95-38.1 22.63-38.1L22.63-38.1Q25.36-38.1 25.36-35.6L25.36-35.6 25.36-35.51 34.28-35.51Q35.6-35.51 36.41-34.69 37.22-33.88 37.22-32.56L37.22-32.56 37.22-29.18Q37.22-27.86 36.41-27.05 35.6-26.24 34.28-26.24L34.28-26.24 25.36-26.24 25.36-24.35 40.56-24.35Q42.71-24.35 42.71-22.19L42.71-22.19Q42.71-20 40.56-20ZM53.88-23.91L53.88-23.91Q52.91-18.06 51.68-14.77L51.68-14.77Q50.84-12.83 48.65-13.71L48.65-13.71Q46.23-14.68 47.2-16.92L47.2-16.92Q48.52-20.3 49.22-24.57L49.22-24.57Q49.61-27.16 52.08-26.54L52.08-26.54Q54.18-26.02 53.88-23.91ZM55.42-23.12L55.42-23.12 55.42-34.76Q55.42-37.35 58.05-37.35L58.05-37.35Q60.64-37.35 60.64-34.76L60.64-34.76 60.64-24.87 62.49-25.66Q63.19-25.97 63.83-25.71 64.47-25.44 64.73-24.74L64.73-24.74Q66.45-20.52 67.32-16.57L67.32-16.57Q67.5-15.6 67.15-15.07 66.8-14.55 65.83-14.11L65.83-14.11Q64.47-13.45 63.7-13.69 62.93-13.93 62.67-15.34L62.67-15.34Q62.09-18.24 60.64-22.68L60.64-22.68Q60.6-15.12 59.19-9.16 57.79-3.21 53.66 1.45L53.66 1.45Q51.15 3.91 49.22 1.8 47.29-0.31 49.88-2.9L49.88-2.9Q53.22-6.9 54.32-11.87 55.42-16.83 55.42-23.12ZM85.83-34.89L85.83-34.89 85.83 0.75Q85.83 3.43 83.14 3.43L83.14 3.43Q80.51 3.43 80.51 0.75L80.51 0.75 80.51-15.42 78.4-14.28Q77.52-13.84 76.9-14.02 76.29-14.19 76.11-14.94L76.11-14.94Q75.19-18.46 72.95-23.2L72.95-23.2 72.95-1.63Q72.95 0.97 70.4 0.97L70.4 0.97Q67.76 0.97 67.76-1.63L67.76-1.63 67.76-33.79Q67.76-36.34 70.4-36.34L70.4-36.34Q72.95-36.34 72.95-33.79L72.95-33.79 72.95-25 74.71-25.88Q76.25-26.63 76.99-25.14L76.99-25.14Q79.32-20.61 80.51-16.79L80.51-16.79 80.51-34.89Q80.51-37.53 83.14-37.53L83.14-37.53Q85.83-37.53 85.83-34.89ZM115.36-23.6L115.36-23.6 124.89-23.6Q125.99-23.6 125.2-24.39L125.2-24.39Q122.56-27.03 119.79-30.54L119.79-30.54Q117.73-27.47 114.96-24.35L114.96-24.35Q114.21-23.6 115.36-23.6ZM126.3-18.81L126.3-18.81 113.99-18.81Q112.98-18.81 112.37-19.42 111.75-20.04 111.75-21.05L111.75-21.05 111.75-21.18Q111.71-21.09 111.53-21.01 111.36-20.92 111.31-20.83L111.31-20.83Q108.54-18.59 107.18-21.53L107.18-21.53Q106.08-24.04 108.41-25.66L108.41-25.66Q114.04-30.1 117.42-36.25L117.42-36.25Q118.48-38.36 121.03-37.49L121.03-37.49Q123.18-36.74 122.34-34.94L122.34-34.94Q122.3-34.89 122.3-34.85L122.3-34.85Q125.95-29.88 130.96-26.06L130.96-26.06Q132.14-25.18 132.41-24.32 132.67-23.47 132.1-22.15L132.1-22.15Q131.35-20.57 130.36-20.48 129.38-20.39 128.01-21.62L128.01-21.62Q127.97-21.67 127.86-21.75 127.75-21.84 127.71-21.88L127.71-21.88 127.71-20.21Q127.71-19.6 127.31-19.2 126.91-18.81 126.3-18.81ZM102.3-33.97L102.3-33.97Q100.33-28.83 97.34-23.91L97.34-23.91 100.24-24.17Q101.07-25.71 101.43-26.59L101.43-26.59Q102.61-29.31 105.03-27.82L105.03-27.82Q107.09-26.59 106.04-24.39L106.04-24.39Q103.8-20.04 100.11-14.77L100.11-14.77 103.32-15.51Q105.86-16.08 105.91-13.54L105.91-13.54Q105.95-12.61 104.63-11.76 103.32-10.9 102.04-10.55L102.04-10.55Q95.71-8.79 94.31-8.79L94.31-8.79Q92.81-8.79 92.37-10.02L92.37-10.02Q92.24-10.9 92.2-11.36 92.15-11.82 92.53-12.48 92.9-13.14 93.19-13.47 93.47-13.8 94.02-14.41 94.57-15.03 94.83-15.38L94.83-15.38Q95.89-16.61 97.6-19.56L97.6-19.56Q95.32-19.07 93.96-19.23 92.59-19.38 92.02-21.01L92.02-21.01Q91.85-21.84 91.8-22.32 91.76-22.81 92-23.42 92.24-24.04 92.46-24.39 92.68-24.74 93.05-25.27 93.43-25.8 93.6-26.15L93.6-26.15Q95.23-28.83 97.21-34.94L97.21-34.94Q97.65-36.47 98.61-37.22 99.58-37.97 100.9-37.35L100.9-37.35Q103.14-36.34 102.3-33.97ZM93.91-3.82L93.91-3.82Q95.54-4.35 98.7-5.52 101.87-6.68 103.32-7.16L103.32-7.16Q105.73-8.04 106.22-5.54L106.22-5.54Q106.61-3.52 104.77-2.77L104.77-2.77Q103.1-2.07 99.98-0.79 96.86 0.48 95.45 1.1L95.45 1.1Q94.09 1.58 93.38 1.16 92.68 0.75 92.33-0.7L92.33-0.7Q92.02-1.98 92.37-2.72 92.72-3.47 93.91-3.82ZM110.39-15.64L110.39-15.64 129.2-15.64Q131.62-15.64 131.62-13.23L131.62-13.23Q131.62-10.77 129.2-10.77L129.2-10.77 120.01-10.77Q119.53-9.93 117.93-7.03 116.32-4.13 115.44-2.72L115.44-2.72 124.54-3.56Q124.01-4.48 123.53-5.45L123.53-5.45Q122.26-7.6 124.58-8.53L124.58-8.53Q126.47-9.27 127.53-7.65L127.53-7.65Q129.99-3.87 131.84 0.13L131.84 0.13Q132.23 1.23 131.92 1.82 131.62 2.42 130.52 2.94L130.52 2.94Q128.06 4.09 127.13 1.63L127.13 1.63Q127 1.32 126.74 0.62L126.74 0.62Q124.06 0.88 119.79 1.41L119.79 1.41Q113.07 2.29 110.54 2.22 108.02 2.15 107.58 0.75L107.58 0.75Q107.23-0.35 107.58-1.08 107.93-1.8 108.83-2.44 109.73-3.08 109.86-3.21L109.86-3.21Q111.01-4.61 114.43-10.77L114.43-10.77 110.39-10.77Q107.97-10.77 107.97-13.23L107.97-13.23Q107.97-15.64 110.39-15.64ZM147.39-27.73L147.39-27.73 147.39 1.27Q147.39 3.78 144.84 3.78L144.84 3.78Q142.34 3.78 142.34 1.27L142.34 1.27 142.34-20Q141.99-19.51 141.2-18.54L141.2-18.54Q139.88-17.09 138.91-17.16 137.94-17.23 137.07-18.9L137.07-18.9Q136.45-20.13 136.56-21.07 136.67-22.02 137.64-23.03L137.64-23.03Q142.51-28.48 145.63-35.64L145.63-35.64Q146.6-38.01 148.97-37.22L148.97-37.22Q151.48-36.43 150.51-34.01L150.51-34.01Q149.24-30.89 147.39-27.73ZM175.91 2.46L175.91 2.46 152.23 2.46Q149.72 2.46 149.72-0.04 149.72-2.55 152.23-2.55L152.23-2.55 161.54-2.55 161.54-11.51 154.64-11.51Q152.14-11.51 152.14-14.02L152.14-14.02Q152.14-16.57 154.64-16.57L154.64-16.57 161.54-16.57 161.54-24.39 153.28-24.39Q150.73-24.39 150.73-26.89L150.73-26.89Q150.73-29.44 153.28-29.44L153.28-29.44 163.39-29.44Q161.46-30.94 158.47-32.92L158.47-32.92Q155.92-34.41 157.98-36.61L157.98-36.61Q159.43-38.19 161.37-37.18L161.37-37.18Q164.66-35.33 167.61-33.22L167.61-33.22Q168.44-32.61 168.44-31.49 168.44-30.37 167.56-29.44L167.56-29.44 175.21-29.44Q177.76-29.44 177.76-26.89L177.76-26.89Q177.76-24.39 175.21-24.39L175.21-24.39 166.95-24.39 166.95-16.57 174.07-16.57Q176.57-16.57 176.57-14.02L176.57-14.02Q176.57-11.51 174.07-11.51L174.07-11.51 166.95-11.51 166.95-2.55 175.91-2.55Q178.42-2.55 178.42-0.04 178.42 2.46 175.91 2.46Z" transform="translate(-2.5, 38.099998474121094)"></path></g> <!----> <!----> <!----> <!----> <!----> <!----> <!----></g></g> <g data-gra="path-slogan" fill-rule="" class="tp-slogan iconsvg-slogansvg" fill="#333" transform="translate(5,47.87999725341797)"><rect x="0" height="1" y="3.9750003814697266" width="26.58944320678711"></rect> <rect height="1" y="3.9750003814697266" width="26.58944320678711" x="139.3305549621582"></rect> <g transform="translate(29.58944320678711,0)"><g transform="scale(1)"><path d="M7.31-3.61L4.69-3.61L4.69-4.59L8.44-4.59L8.44 0L7.69 0L7.41-1.08Q6.42 0.09 4.59 0.14L4.59 0.14Q2.86 0.14 1.92-0.75L1.92-0.75Q0.52-2.06 0.56-4.36L0.56-4.36Q0.89-8.63 4.64-8.81L4.64-8.81Q7.83-8.63 8.30-6L8.30-6L7.17-6Q6.70-7.78 4.59-7.83L4.59-7.83Q1.92-7.64 1.78-4.31L1.78-4.31Q1.78-0.75 4.64-0.75L4.64-0.75Q5.67-0.75 6.42-1.31L6.42-1.31Q7.36-2.06 7.31-3.61L7.31-3.61ZM15.89-3.19L15.89-8.58L17.06-8.58L17.06-3.05Q16.92 0.05 13.55 0.14L13.55 0.14Q10.41 0.05 10.27-2.86L10.27-2.86L10.27-8.58L11.44-8.58L11.44-3.19Q11.48-0.84 13.59-0.80L13.59-0.80Q15.89-0.84 15.89-3.19L15.89-3.19ZM19.03-8.58L20.20-8.58L20.20 0L19.03 0L19.03-8.58ZM23.02-1.03L28.31-1.03L28.31 0L21.56 0L21.56-0.94L26.81-7.59L21.94-7.59L21.94-8.58L28.31-8.58L28.31-7.59L23.02-1.03ZM30.61-5.06L35.11-5.06L35.11-8.58L36.28-8.58L36.28 0L35.11 0L35.11-3.98L30.61-3.98L30.61 0L29.44 0L29.44-8.58L30.61-8.58L30.61-5.06ZM44.86-4.27L44.86-4.27Q44.67-7.64 41.86-7.83L41.86-7.83Q39-7.69 38.86-4.27L38.86-4.27Q39-0.94 41.86-0.80L41.86-0.80Q44.67-0.98 44.86-4.27ZM46.03-4.27L46.03-4.27Q45.75 0 41.86 0.14L41.86 0.14Q37.92 0 37.64-4.27L37.64-4.27Q37.88-8.72 41.86-8.81L41.86-8.81Q45.75-8.67 46.03-4.27ZM53.06-3.19L53.06-8.58L54.23-8.58L54.23-3.05Q54.09 0.05 50.72 0.14L50.72 0.14Q47.58 0.05 47.44-2.86L47.44-2.86L47.44-8.58L48.61-8.58L48.61-3.19Q48.66-0.84 50.77-0.80L50.77-0.80Q53.06-0.84 53.06-3.19L53.06-3.19ZM60.52-5.06L65.02-5.06L65.02-8.58L66.19-8.58L66.19 0L65.02 0L65.02-3.98L60.52-3.98L60.52 0L59.34 0L59.34-8.58L60.52-8.58L60.52-5.06ZM73.64-3.19L73.64-8.58L74.81-8.58L74.81-3.05Q74.67 0.05 71.30 0.14L71.30 0.14Q68.16 0.05 68.02-2.86L68.02-2.86L68.02-8.58L69.19-8.58L69.19-3.19Q69.23-0.84 71.34-0.80L71.34-0.80Q73.64-0.84 73.64-3.19L73.64-3.19ZM82.27 0L81.42-2.48L77.95-2.48L77.06 0L75.89 0L79.13-8.58L80.44-8.58L83.53 0L82.27 0ZM79.69-7.31L78.33-3.52L81-3.52L79.73-7.31L79.69-7.31ZM85.41-1.03L90.70-1.03L90.70 0L83.95 0L83.95-0.94L89.20-7.59L84.33-7.59L84.33-8.58L90.70-8.58L90.70-7.59L85.41-1.03ZM93-5.06L97.50-5.06L97.50-8.58L98.67-8.58L98.67 0L97.50 0L97.50-3.98L93-3.98L93 0L91.83 0L91.83-8.58L93-8.58L93-5.06ZM106.13-3.19L106.13-8.58L107.30-8.58L107.30-3.05Q107.16 0.05 103.78 0.14L103.78 0.14Q100.64 0.05 100.50-2.86L100.50-2.86L100.50-8.58L101.67-8.58L101.67-3.19Q101.72-0.84 103.83-0.80L103.83-0.80Q106.13-0.84 106.13-3.19L106.13-3.19Z" transform="translate(-0.5609879032258065, 8.8125)"></path></g></g></g></g></g><defs v-gra="od"></defs></svg>